<?xml version="1.0" encoding="UTF-8" standalone="no"?>
<!-- Created with Inkscape (http://www.inkscape.org/) -->

<svg
   width="122.772mm"
   height="91.838509mm"
   viewBox="0 0 122.772 91.838506"
   version="1.1"
   id="svg1"
   xml:space="preserve"
   inkscape:version="1.4.2 (f4327f4, 2025-05-13)"
   sodipodi:docname="logo.svg"
   xmlns:inkscape="http://www.inkscape.org/namespaces/inkscape"
   xmlns:sodipodi="http://sodipodi.sourceforge.net/DTD/sodipodi-0.dtd"
   xmlns="http://www.w3.org/2000/svg"
   xmlns:svg="http://www.w3.org/2000/svg"><sodipodi:namedview
     id="namedview1"
     pagecolor="#ffffff"
     bordercolor="#000000"
     borderopacity="0.25"
     inkscape:showpageshadow="2"
     inkscape:pageopacity="0.0"
     inkscape:pagecheckerboard="false"
     inkscape:deskcolor="#d1d1d1"
     inkscape:document-units="mm"
     inkscape:zoom="0.65477694"
     inkscape:cx="-167.99614"
     inkscape:cy="40.471798"
     inkscape:window-width="1920"
     inkscape:window-height="974"
     inkscape:window-x="-11"
     inkscape:window-y="-11"
     inkscape:window-maximized="1"
     inkscape:current-layer="layer2" /><defs
     id="defs1" /><g
     inkscape:groupmode="layer"
     id="layer2"
     inkscape:label="design"
     style="display:inline"
     transform="translate(-44.657159,-90.817344)"><path
       style="display:inline;fill:#026134;fill-opacity:1;stroke:none;stroke-width:0;stroke-dasharray:none;stroke-opacity:1"
       d="m 63.505551,114.67713 c 0,0 2.84892,-9.96048 10.910206,-12.32449 8.34503,-2.447213 16.16326,3.23265 16.16326,3.23265 0,0 3.51125,-10.001017 16.870403,-10.001007 13.23367,0 18.28469,11.213257 18.28469,11.213257 0,0 10.51856,-3.00263 16.26429,0.80817 7.60712,5.04535 5.75816,15.96122 5.75816,15.96122 0,0 7.27439,3.12234 10.39328,8.04276 4.06753,6.417 3.83461,14.87936 1.16998,20.12671 -2.71865,5.3537 -7.86705,8.79225 -12.6897,9.73262 -4.82266,0.94037 -10.47146,-1.56941 -10.47146,-1.56941 0,0 -2.80485,8.23667 -14.78364,11.62242 -14.05112,3.97149 -24.128643,-6.33469 -24.128643,-6.33469 l -30.342889,16.90104 c 0,0 3.946289,-3.7964 7.105039,-9.803 3.12784,-5.94779 3.50823,-8.58271 3.50823,-8.58271 0,0 -13.214935,4.52223 -18.12765,-3.69907 -3.82197,-6.39596 -2.026356,-14.7938 -2.026356,-14.7938 0,0 -11.810105,-5.2408 -10.597861,-16.95916 1.212247,-11.71837 16.740671,-13.57351 16.740671,-13.57351 z"
       id="path1-5"
       sodipodi:nodetypes="cscscscsszcsccscscscc"
       inkscape:label="backCloud" /><path
       style="display:inline;fill:#00bf63;fill-opacity:1;stroke:none;stroke-width:0;stroke-dasharray:none;stroke-opacity:1"
       d="m 67.683673,112.33469 c 0,0 2.84892,-9.96048 10.910203,-12.32449 8.345029,-2.447219 16.163265,3.23265 16.163265,3.23265 0,0 3.511248,-10.001017 16.870409,-10.001016 13.23367,10e-7 18.28469,11.213266 18.28469,11.213266 0,0 10.51856,-3.00263 16.26429,0.80817 7.60712,5.04535 5.75816,15.96122 5.75816,15.96122 0,0 7.27439,3.12234 10.39328,8.04276 4.06753,6.417 3.83461,14.87936 1.16998,20.12671 -2.71865,5.3537 -7.86705,8.79225 -12.6897,9.73262 -4.82266,0.94037 -10.47146,-1.56941 -10.47146,-1.56941 0,0 -2.80485,8.23667 -14.78364,11.62242 -14.05112,3.97149 -24.12865,-6.33469 -24.12865,-6.33469 l -30.34289,16.90104 c 0,0 3.946284,-3.7964 7.105041,-9.803 3.127834,-5.94779 3.508229,-8.58271 3.508229,-8.58271 0,0 -13.214936,4.52223 -18.127651,-3.69907 -3.82197,-6.39596 -2.026356,-14.7938 -2.026356,-14.7938 0,0 -11.810105,-5.2408 -10.597861,-16.95916 1.212247,-11.71837 16.740671,-13.57351 16.740671,-13.57351 z"
       id="path1"
       sodipodi:nodetypes="cscscscsszcsccscscscc"
       inkscape:label="topCloud" /><circle
       style="display:inline;fill:#049f54;fill-opacity:1;stroke:#000000;stroke-width:1.426;stroke-dasharray:none;stroke-opacity:1"
       id="path3"
       cx="140"
       cy="135"
       inkscape:label="sphere3"
       r="10" /><circle
       style="display:inline;fill:#7ed957;fill-opacity:1;stroke:#000000;stroke-width:1.426;stroke-dasharray:none;stroke-opacity:1"
       id="circle3"
       cx="110"
       cy="135"
       inkscape:label="sphere"
       r="10" /><circle
       style="display:inline;fill:#c1ff72;fill-opacity:1;stroke:#000000;stroke-width:1.426;stroke-dasharray:none;stroke-opacity:1"
       id="circle4"
       cx="80"
       cy="135"
       inkscape:label="sphere1"
       r="10" /></g></svg>
