<svg width="130" height="130" viewBox="0 0 130 130" xmlns="http://www.w3.org/2000/svg">
  <g transform="translate(-43.228515,-90.531615)">
    <path fill="#026134" d="m 66.086467,131.826 c 0,0 2.848914,-9.96048 10.910197,-12.32449 8.34503,-2.44721 16.16325,3.23265 16.16325,3.23265 0,0 3.511247,-10.00101 16.870386,-10.001 13.23368,0 18.28466,11.21325 18.28466,11.21325 0,0 10.51852,-3.00263 16.26427,0.80817 7.6071,5.04535 5.75815,15.96122 5.75815,15.96122 0,0 7.27446,3.12234 10.39333,8.04276 4.06757,6.417 3.83457,14.87936 1.16999,20.12671 -2.71868,5.3537 -7.86704,8.79225 -12.68972,9.73262 -4.82261,0.94037 -10.47144,-1.56941 -10.47144,-1.56941 0,0 -2.80485,8.23667 -14.78363,11.62242 -14.05116,3.97149 -24.128647,-6.33469 -24.128647,-6.33469 l -30.342858,16.90104 c 0,0 3.946278,-3.7964 7.105028,-9.803 3.127841,-5.94779 3.508231,-8.58271 3.508231,-8.58271 0,0 -13.214928,4.52223 -18.127641,-3.69907 -3.821966,-6.39596 -2.026353,-14.7938 -2.026353,-14.7938 0,0 -11.81009,-5.2408 -10.597858,-16.95916 C 50.558069,133.68114 66.086476,131.826 66.086476,131.826 Z"/>
    <path fill="#00bf63" d="m 70.264586,129.48356 c 0,0 2.848918,-9.96048 10.910189,-12.32449 8.345025,-2.44722 16.163255,3.23265 16.163255,3.23265 0,0 3.51122,-10.00101 16.87039,-10.00101 13.23369,0 18.28468,11.21326 18.28468,11.21326 0,0 10.51859,-3.00263 16.26432,0.80817 7.60707,5.04535 5.75815,15.96122 5.75815,15.96122 0,0 7.27434,3.12234 10.39323,8.04276 4.06755,6.417 3.83461,14.87936 1.16998,20.12671 -2.71863,5.3537 -7.86705,8.79225 -12.68968,9.73262 -4.82265,0.94037 -10.47149,-1.56941 -10.47149,-1.56941 0,0 -2.80479,8.23667 -14.7836,11.62242 -14.0511,3.97149 -24.12865,-6.33469 -24.12865,-6.33469 l -30.342839,16.90104 c 0,0 3.946281,-3.7964 7.105037,-9.803 3.127831,-5.94779 3.508231,-8.58271 3.508231,-8.58271 0,0 -13.214933,4.52223 -18.127647,-3.69907 -3.821968,-6.39596 -2.026348,-14.7938 -2.026348,-14.7938 0,0 -11.810101,-5.2408 -10.597859,-16.95916 1.212247,-11.71837 16.74066,-13.57351 16.74066,-13.57351 z"/>
    <ellipse fill="#049f54" stroke="#000000" stroke-width="1.426" cx="142.581" cy="152.149" rx="10" ry="10"/>
    <ellipse fill="#7ed957" stroke="#000000" stroke-width="1.426" cx="112.581" cy="152.149" rx="10" ry="10"/>
    <ellipse fill="#c1ff72" stroke="#000000" stroke-width="1.426" cx="82.581" cy="152.149" rx="10" ry="10"/>
  </g>
</svg>
